<mxfile host="Electron" modified="2023-09-10T19:39:09.016Z" agent="Mozilla/5.0 (Windows NT 10.0; Win64; x64) AppleWebKit/537.36 (KHTML, like Gecko) draw.io/21.6.8 Chrome/114.0.5735.289 Electron/25.5.0 Safari/537.36" etag="r_zXdIQmD7U-CdGJ3OfO" version="21.6.8" type="device">
  <diagram name="Página-1" id="XIpqf15tc82AFL4VbFKE">
    <mxGraphModel dx="1418" dy="828" grid="1" gridSize="10" guides="1" tooltips="1" connect="1" arrows="1" fold="1" page="1" pageScale="1" pageWidth="827" pageHeight="1169" math="0" shadow="0">
      <root>
        <mxCell id="0" />
        <mxCell id="1" parent="0" />
        <mxCell id="X6sWvmN5y5PCkhi-TVqT-1" value="Sistema" style="verticalAlign=top;align=left;spacingTop=8;spacingLeft=2;spacingRight=12;shape=cube;size=10;direction=south;fontStyle=4;html=1;whiteSpace=wrap;" parent="1" vertex="1">
          <mxGeometry x="210" y="20" width="520" height="500" as="geometry" />
        </mxCell>
        <mxCell id="X6sWvmN5y5PCkhi-TVqT-2" value="Usuario" style="shape=umlActor;verticalLabelPosition=bottom;verticalAlign=top;html=1;" parent="1" vertex="1">
          <mxGeometry x="100" y="210" width="50" height="90" as="geometry" />
        </mxCell>
        <mxCell id="X6sWvmN5y5PCkhi-TVqT-3" value="Presiona botón cerrar sesión" style="ellipse;whiteSpace=wrap;html=1;" parent="1" vertex="1">
          <mxGeometry x="410" y="160" width="120" height="80" as="geometry" />
        </mxCell>
        <mxCell id="X6sWvmN5y5PCkhi-TVqT-4" value="Cerrar sesión" style="rounded=0;whiteSpace=wrap;html=1;" parent="1" vertex="1">
          <mxGeometry x="380" y="40" width="180" height="20" as="geometry" />
        </mxCell>
        <mxCell id="X6sWvmN5y5PCkhi-TVqT-7" value="Cierra sesión del usuario" style="ellipse;whiteSpace=wrap;html=1;" parent="1" vertex="1">
          <mxGeometry x="420" y="370" width="120" height="80" as="geometry" />
        </mxCell>
        <mxCell id="MyymI0bJ98facqV3Kjpl-1" value="" style="endArrow=none;html=1;rounded=0;exitX=0.5;exitY=0.5;exitDx=0;exitDy=0;exitPerimeter=0;entryX=0;entryY=0.5;entryDx=0;entryDy=0;" parent="1" source="X6sWvmN5y5PCkhi-TVqT-2" target="X6sWvmN5y5PCkhi-TVqT-3" edge="1">
          <mxGeometry width="50" height="50" relative="1" as="geometry">
            <mxPoint x="390" y="410" as="sourcePoint" />
            <mxPoint x="440" y="360" as="targetPoint" />
          </mxGeometry>
        </mxCell>
        <mxCell id="MyymI0bJ98facqV3Kjpl-2" value="Extends" style="endArrow=block;endSize=16;endFill=0;html=1;rounded=0;entryX=0.558;entryY=0.988;entryDx=0;entryDy=0;exitX=0.5;exitY=0;exitDx=0;exitDy=0;entryPerimeter=0;" parent="1" source="X6sWvmN5y5PCkhi-TVqT-7" target="X6sWvmN5y5PCkhi-TVqT-3" edge="1">
          <mxGeometry width="160" relative="1" as="geometry">
            <mxPoint x="786" y="60" as="sourcePoint" />
            <mxPoint x="680" y="60" as="targetPoint" />
          </mxGeometry>
        </mxCell>
      </root>
    </mxGraphModel>
  </diagram>
</mxfile>
